<svg width="102" height="120" viewBox="0 0 102 120" fill="none" xmlns="http://www.w3.org/2000/svg">
<path d="M82.4606 18.07C82.4606 14.76 79.6025 12.07 76.0856 12.07H31.5669C24.9369 12.07 19.5394 17.15 19.5394 23.39V73.28C19.5394 78.75 23.7681 83.38 29.3144 84.39V86.11C29.3144 87.27 30.005 88.3 31.0994 88.81C31.5456 89.02 32.0238 89.12 32.5019 89.12C33.1925 89.12 33.8831 88.9 34.4569 88.48L38.7494 85.33L43.0419 88.48C44.0087 89.19 45.2944 89.32 46.3994 88.81C47.5044 88.3 48.1844 87.27 48.1844 86.11V73.12H29.3144V80.29C26.1269 79.37 23.7894 76.56 23.7894 73.29C23.7894 69.25 27.285 65.97 31.5669 65.97H77.3713C76.1069 68.22 75.4375 70.72 75.4375 73.29C75.4375 75.86 76.0963 78.36 77.3713 80.61H52.445V84.61H79.2625C80.4525 84.61 81.5363 83.99 82.0888 83C82.6413 82.01 82.5669 80.83 81.8869 79.91C80.4525 77.96 79.6875 75.67 79.6875 73.29C79.6875 70.91 80.4419 68.62 81.8869 66.66C82.2694 66.14 82.4394 65.52 82.4288 64.91H82.4606V18.07ZM33.5644 77.12H43.945V84.08L40.715 81.71C40.1413 81.29 39.44 81.07 38.7494 81.07C38.0588 81.07 37.3681 81.28 36.7837 81.71L33.5538 84.08V77.12H33.5644ZM31.5669 61.97C28.6025 61.97 25.8825 62.99 23.7894 64.67V23.4C23.7894 19.56 26.9556 16.4 30.9613 16.11V57.97H35.2113V16.07H76.0856C77.2544 16.07 78.2106 16.97 78.2106 18.07V61.96H31.5669V61.97Z" fill="black"/>
</svg>
